<?xml version="1.0" standalone="yes"?>
<svg xmlns="http://www.w3.org/2000/svg" width="1000" height="1000">
<path style="fill:#000000; stroke:none;" d="M333 402C330.49 370.203 332.375 338.809 331.996 307C331.679 280.368 330 253.75 330 227C330 203.221 332.391 178.598 329.826 155C326.417 123.622 290.304 107.878 265.001 125.785C246.067 139.184 246.862 159.413 245.961 180C245.255 196.116 244.806 211.872 245.91 228C247.947 257.74 243 287.328 243 317C243 364.198 246.937 413.025 241 460C236.78 457.605 235.29 452.888 232.56 449C229.332 444.402 222.15 439.512 220.904 434C220.006 430.031 222.411 424.999 222.83 421C223.799 411.76 223.77 403.239 222.831 394C218.774 354.065 180.621 297.649 135 303.184C130.057 303.784 125.037 305.913 121 308.789C90.4035 330.593 121.592 362.287 130.934 387C138.586 407.24 129.774 428.531 133.465 449C135.214 458.705 141.672 466.227 145.691 475C152.1 488.987 157.357 503.535 162.565 518C171.63 543.18 172.107 569.889 184.248 594C200.715 626.703 220.013 661.887 242.235 691C253.397 705.623 268.611 717.198 279.211 732C288.636 745.159 294.9 764.255 297.999 780C304.176 811.383 301 845.134 301 877C301 887.345 297.473 906.216 307.105 913.297C312.534 917.288 320.674 916 327 916L372 916L546 916C546.078 911.788 548.515 904.155 545.969 900.513C542.724 895.87 531.767 894.865 527 890.79C522.273 886.749 517.207 881.709 514.554 876C513.053 872.77 513.08 868.344 510.86 865.515C508.851 862.954 504.134 862.757 501.742 864.939C499.132 867.32 499.874 872.844 500.09 876C500.727 885.314 501.994 894.65 502 904C485.857 903.988 491.348 882.525 488 870L487 870C484.088 874.763 477.145 873.281 475.032 878.147C472.217 884.634 479.107 898.471 472.566 902.972C468.999 905.428 462.92 903.543 459 903.17C449.801 902.294 440.238 903 431 903C392.34 903 353.575 902.004 315 902C315 850.936 321.732 796.282 303 748C309.547 751.445 339.241 767.98 339.597 750C339.779 740.851 320.531 739.419 314 736.36C290.319 725.266 271.498 705.154 255.4 685C238.99 664.456 226.973 639.86 214.139 617C206.531 603.448 197.037 590.713 191.695 576C182.673 551.149 179.614 524.2 170.997 499C166.395 485.542 158.771 473.334 154 460C159.153 458.484 165.245 455.377 167.254 449.996C169.784 443.218 162.962 438.627 157 441.587C153.519 443.315 150.737 446.321 148 449C145.683 436.511 149.005 422.732 149 410C148.998 404.27 146.202 396.741 147.269 391.3C147.886 388.15 151.533 386.394 153.297 383.91C156.213 379.805 157.173 372.939 156.816 368C155.379 348.124 142.76 334.275 132 319C163.304 313.188 190.131 344.346 201.688 370C208.747 385.67 211.634 402.084 208.388 419C206.987 426.304 196.831 439.168 200.333 445.89C203.354 451.691 208.388 447.365 213 448.697C216.879 449.817 220.095 454.001 222.532 457C229.667 465.776 235.894 477.445 239.935 488C242.969 495.925 244.506 505.587 251.185 511.471C267.338 525.699 286.992 531.439 306 540.486C322.825 548.494 338.442 559.378 351.961 572.17C370.372 589.591 384.05 614.092 388.739 639C389.898 645.156 391.818 656.099 400.811 653.677C409.394 651.367 402.578 632.542 401.116 627C393.972 599.93 376.952 577.116 357 558.039C342.237 543.924 324.698 533.423 306 525.427C289.322 518.296 265.972 510.754 256.367 494C251.258 485.09 253.424 477.436 253.965 468C254.917 451.368 256.973 434.668 257 418C257.11 349.18 259 280.686 259 212C259 187.682 250.632 142.052 282 133.49C299.227 128.788 314.553 144.238 315.907 161C318.333 191.048 315.362 221.855 315.004 252C314.71 276.675 318 301.267 318 326C318 343.983 317.574 362.023 318.015 380C318.149 385.474 321.268 394.744 317.972 399.682C315.934 402.737 311.15 401.999 308 402C299.395 402.004 290.543 400.312 282 401.171C277.501 401.622 270.781 402.976 271.623 408.999C272.96 418.576 293.233 415 300 415L356 415C362.387 415 373.794 417.214 379.582 414.397C382.989 412.738 384.939 406.358 386 403L359 402C359 324.685 363 247.306 363 170C363 147.64 359.691 98.905 397 107.529C423.434 113.64 418 150.219 418 170C418 211.538 418.97 252.575 419.985 294C420.562 317.529 419.141 340.45 421 364L435 357C433.336 347.663 427.554 339.871 427.104 330C426.595 318.825 434.453 309.764 435.366 299C436.734 282.849 433.028 263.318 431.91 247C430.149 221.285 432 195.733 432 170C432 151.171 435.88 127.53 424.895 111C407.635 85.0267 366.418 87.7016 354.015 117C347.293 132.878 349.66 149.331 349.66 166C349.66 182.722 349.228 199.271 349.961 216C351.088 241.745 347.162 267.363 346.039 293C345.424 307.042 347.001 320.969 347 335C346.999 350 345 364.996 345 380C345 385.148 346.923 395.261 343.972 399.682C341.801 402.936 336.354 402 333 402M532 387L531 387L449 437C443.494 426.2 435.399 416.857 428.424 407C426.406 404.147 421.382 398.923 422.447 395.104C423.803 390.242 433.986 386.089 438 383.576C451.843 374.908 465.409 365.728 479 356.667C492.038 347.975 506.893 340.461 518.96 330.482C526.914 323.904 530.958 314.524 540 308.7C549.359 302.672 560.427 302.628 570 297.677C587.812 288.464 603.972 275.75 621 265.192C633.438 257.48 645.599 249.34 658 241.576C661.664 239.282 668.023 233.147 672.576 233.441C676.115 233.67 679.703 238.63 681.911 241C689.449 249.096 694.964 258.46 700.421 268C702.258 271.212 706.744 276.763 704.292 280.535C699.3 288.213 685.591 293.238 678 298.053C656.897 311.438 635.318 324.447 615 339L621 351C659.67 334.315 690.256 296.238 731 283.985C737.879 281.916 739.101 288.851 743.339 292.297C747.397 295.597 753.232 295.242 758 294.101C771.471 290.878 782.443 282.622 794 275.424C813.431 263.321 832.926 250.986 852 238.333C861.118 232.284 876.918 225.126 881.972 215C886.675 205.578 874.273 198.053 875.619 189C876.333 184.198 881.522 180.887 884.031 177C895.627 159.034 908.176 147.938 892.39 127.004C888.639 122.029 883.326 118.396 877 118.043C870.025 117.654 865.471 121.135 859 122.178C852.855 123.169 847.608 119.782 841 121.478C804.716 130.795 770.917 154.414 739 173.139C702.974 194.275 669.224 218.594 634 240.947C572.452 280.004 510.659 318.58 450 359C436.741 367.835 418.202 375.734 407.318 387.379C403.82 391.122 406.355 395.732 404.454 399.961C402.272 404.814 396.353 410.013 392.711 413.911C385.707 421.405 372.3 426.061 366.782 434.213C364.791 437.153 366.247 440.838 364.821 444C361.772 450.76 345.599 466.093 349.133 473.891C354.764 486.319 376.748 465.842 384.424 467.553C387.152 468.161 389.021 470.528 392 470.548C396.28 470.576 400.378 466.679 404 464.785C411.699 460.76 420.014 457.425 428 454.001C437.006 450.139 445.405 452.789 454 449.532C471.76 442.803 487.669 430.196 504 420.717C512.058 416.04 519.841 410.804 528 406.312C530.887 404.722 536.151 403.148 537.292 399.671C538.622 395.614 534.173 390.052 532 387M545 137C525.619 132.557 507.771 124.219 488 120.92C481.894 119.901 472.895 117.008 467.015 120.028C453.331 127.056 457 150.524 463.468 161C474.765 179.297 497.548 182.083 517 184.166C524.794 185 534.296 186.87 540.811 181.291C548.393 174.799 541.131 168.571 540.185 161C539.051 151.922 541.602 145.173 545 137z"/>
<path style="fill:none; stroke:none;" d="M866 132C866.898 134.035 867.728 136.121 869.394 137.686C877.795 145.583 887.809 128.784 872.005 130.199C869.828 130.394 867.984 131.163 866 132M472 131C472.211 149.96 505.222 146 519 146C518.036 139.826 513.62 138.582 508 137.449C496.182 135.066 483.881 132.748 472 131M843.996 135.548C831.457 136.112 818.911 144.298 808 149.753C780.796 163.355 754.555 179.232 729 195.692C720.86 200.935 708.804 205.834 702.573 213.301C699.586 216.88 699.404 224.837 705.105 226.183C708.956 227.092 713.19 223.08 716 221.025C724.397 214.885 733.332 209.418 742 203.667C766.117 187.668 791.261 172.543 817 159.258C825.477 154.883 844.52 150.662 850.342 143.351C853.602 139.258 847.621 135.385 843.996 135.548z"/>
<path style="fill:#000000; stroke:none;" d="M559.004 142.657C543.608 147.332 551.854 173.202 567.996 167.941C583.306 162.952 572.815 138.462 559.004 142.657M586 161C582.929 168.914 579.489 175.42 571 178.451C565.472 180.426 561.397 177.722 556.185 178.502C552.59 179.04 544.213 189.658 543.342 193C542.551 196.034 545.502 198.923 547.29 201C552.917 207.534 559.181 213.623 565 220C572.171 227.859 579.47 235.474 587 243C589.582 245.581 593.11 250.576 597 251.083C601.212 251.631 608.328 245.201 612 243.139C628.032 234.136 640.72 221.516 656 212L656 211L641 204C638.036 209.714 626.852 222.236 619.419 216.254C616.158 213.63 615.237 207.803 614 204C625.302 209.924 639.552 202.599 630.991 189.043C627.664 183.776 621.222 182.625 616 180.03C605.796 174.96 597.171 163.023 586 161M378.055 198.742C372.04 201.228 372.775 208.965 378.055 211.821C383.132 214.567 397.959 213.551 402.941 210.821C408.257 207.908 407.331 201.084 401.956 198.893C396.678 196.743 383.336 196.56 378.055 198.742z"/>
<path style="fill:none; stroke:none;" d="M857 203.693C847.73 205.906 836.907 215.062 829 220.333C810.716 232.522 792.399 244.645 774 256.656C768.447 260.281 760.709 263.25 756.333 268.326C753.295 271.849 755.485 276.692 760.015 277.381C767.877 278.577 779.785 267.713 786 263.656L842 227C848.5 222.762 860.128 218.528 864.377 211.907C867.555 206.955 861.778 202.552 857 203.693z"/>
<path style="fill:#000000; stroke:none;" d="M278.015 214.653C271.975 216.608 270.038 224.403 276.109 227.821C280.917 230.528 292.967 229.935 297.956 227.852C303.496 225.538 304.379 218.268 298.891 215.179C294.329 212.611 282.908 213.069 278.015 214.653M513 236C517.45 242.342 522.874 246.688 522.982 255C523.113 265.187 513.576 275.59 524.394 284.397C537.597 295.146 559.757 276.002 570 269.576C573.826 267.175 581.266 263.586 582.694 258.961C584.432 253.329 574.397 245.387 571 242.001C566.415 237.431 559.834 228.893 553.911 226.35C550.359 224.825 545.515 226.73 542 227.63C532.282 230.117 522.363 232.393 513 236z"/>
<path style="fill:none; stroke:none;" d="M688 227L695 234L688 227z"/>
<path style="fill:#000000; stroke:none;" d="M498 241.515C491.606 242.78 477.899 243.468 473.43 248.279C464.4 257.999 478.501 265.02 487 264.232C489.77 263.976 492.243 262.074 495 262.094C498.525 262.12 501.286 265.377 504.985 264.302C517.802 260.578 510.639 239.016 498 241.515M462 267C456.884 284.758 446.7 301.053 441.579 319C439.667 325.698 436.427 335.663 441.514 341.786C450.012 352.015 465.232 337.726 473 332.656C483.906 325.537 504.476 315.833 510.442 303.999C514.862 295.231 512.879 285.108 511 276L482 277C476.472 289.844 473.089 303.832 468.305 317C465.335 325.174 462.524 331.887 453 332L463.799 301L474 277L474 276L462 267M379.005 295.573C373.33 297.229 370.297 304.338 376.134 308.012C381.42 311.338 396.244 311.585 401.956 309.258C407.399 307.04 408.18 300.114 402.941 297.175C397.255 293.986 385.165 293.774 379.005 295.573M276.105 302.742C270.722 305.027 269.964 312.845 275.133 315.821C280.032 318.641 296.974 318.589 301.891 315.821C306.848 313.031 307 305.799 301.941 303.028C297.065 300.357 281.202 300.579 276.105 302.742M697 420C710.22 396.797 728.082 400.107 750 404C747.854 379.422 730.182 352.506 720.579 330C718.611 325.387 714.124 308.257 707.961 308.346C703.276 308.413 701.907 314.465 701.25 318C699.906 325.236 697.239 331.668 690 334.775C680.184 338.989 665.043 327.388 658.071 338.637C655.386 342.969 662.406 354.843 664.309 359C671.036 373.695 677.507 388.545 684.753 403C687.766 409.01 690.797 416.829 697 420M619 393C626.901 385.263 616.219 367.065 612.244 359C605.176 344.662 596.057 320.542 581 313.138C556.953 301.314 525.612 322.04 530.465 349C532.179 358.528 536.53 368.122 540.284 377C544.001 385.792 547.49 394.651 552.14 403C553.832 406.039 555.504 410.86 559.185 411.998C567.999 414.721 571.91 396.763 576.185 392.015C589.002 377.784 605.955 382.486 619 393M679 325C686.105 327.036 691.557 323.148 693 316L679 325z"/>
<path style="fill:none; stroke:none;" d="M595 356C586.985 359.738 578.245 373.304 568.015 371.461C559.478 369.924 549.781 347.653 553.333 340.001C556.832 332.462 565.163 330.946 572 328C565.843 315.792 548.113 327.12 544.483 336C540.035 346.881 548.56 359.826 553.876 369C557.095 374.555 561.194 379.982 568 380.808C580.572 382.334 600.04 369.558 595 356M138 375C150.364 370.656 136.596 340.142 128.621 334.836C118.772 328.284 124.155 346.026 125.427 349C127.02 352.725 128.956 356.287 130.576 360C132.812 365.125 135.18 370.168 138 375z"/>
<path style="fill:#000000; stroke:none;" d="M642 410L670 399C665.821 388.814 660.82 379.074 656.424 369C654.098 363.669 651.962 355.656 648.031 351.337C644.202 347.131 628.054 358.26 627.531 363.093C627.059 367.45 630.942 372.912 632.254 377C635.837 388.166 639.303 398.678 642 410M592 392.533C569.344 398.031 579.521 435.66 602 430.057C626.415 423.972 615.627 386.799 592 392.533M625 399C624.818 400.7 624.654 402.31 624.749 404.025C625.636 419.981 640.773 400.202 625 399z"/>
<path style="fill:none; stroke:none;" d="M595.055 403.786C586.581 406.715 591.55 420.412 599.956 417.381C608.419 414.329 603.054 401.022 595.055 403.786z"/>
<path style="fill:#000000; stroke:none;" d="M643 424L649 457C662.075 450.523 673.047 442.013 688 440C688.602 425.971 682.781 420.533 675 409L643 424M723 411.529C684.674 420.325 699.294 483.943 737 475.1C779.997 465.017 765.087 401.871 723 411.529M505 449C519.074 449 532.805 446.967 543.941 437.471C548.954 433.196 545.743 416.185 539.581 413.161C535.645 411.23 529.062 417.997 526 419.946C520.47 423.467 508.297 427.955 505.603 434.21C503.845 438.293 505 444.615 505 449z"/>
<path style="fill:none; stroke:none;" d="M388 446L389 446C397.399 437.624 408.386 427.417 420 424C416.949 404.229 399.443 425.04 393 430.831C390.475 433.1 385.504 435.844 384.495 439.285C383.696 442.009 386.41 444.239 388 446z"/>
<path style="fill:#000000; stroke:none;" d="M566.941 417.786C559.088 418.937 554.498 432.043 564.988 430.728C571.362 429.929 573.69 416.798 566.941 417.786M626 420C622.554 431.711 609.007 443.822 596 441.529C589.437 440.371 580.61 432.96 574.152 437.742C568.898 441.634 573.76 451.77 574.8 457C578.5 475.61 578.504 495.912 584 514C587.821 510.055 590.679 505.353 595.039 501.9C611.218 489.086 626.973 493.118 643 503L634.424 450L628 420L626 420z"/>
<path style="fill:none; stroke:none;" d="M728 428.639C708.777 434.103 716.704 464.216 736 458.196C754.195 452.52 746.134 423.484 728 428.639z"/>
<path style="fill:#000000; stroke:none;" d="M463 455C471.247 454.995 495.717 448.202 493 438C485.511 440.386 467.081 448.328 463 455M512 472L513 472L520 465C521.628 472.867 523.989 481.154 530.093 486.787C539.631 495.589 557.708 493.16 563.682 480.996C567.375 473.476 562.605 453.721 559.656 446.11C557.159 439.666 550.676 444.648 547 447.116C538.322 452.942 510.165 460.126 512 472M573 531L569 496C557.304 503.212 544.742 510.48 531 503.084C525.525 500.138 521.171 495.42 516 492C512.052 505.358 515.502 517.098 505.671 529C501.601 533.928 496.824 538.468 491 541.204C487.453 542.87 481.516 543.465 479.564 547.275C476.663 552.936 477.345 561.797 476.91 568C476.157 578.749 474.297 589.353 472.728 600C466.232 644.082 452.154 685.768 469.989 729C472.257 734.496 473.661 741.026 477.109 745.91C484.579 756.491 499.19 758 511 758L574 758C592.254 758 622.828 763.833 637.985 751.61C645.129 745.848 647.947 736.215 651.204 728C655.542 717.058 660.987 706.52 666.247 696C690.909 646.67 714.288 596.142 737.309 546C744.197 530.996 751.344 516.109 758.003 501C760.619 495.065 765.529 488.925 764.566 482.015C764.082 478.54 761.594 476.069 757.995 477.194C746.706 480.726 740.172 489.594 727 487.7C706.402 484.738 694.965 468.332 689 450C683.32 450.851 677.989 453.196 673 456.004C666.613 459.599 656.514 464.221 653.032 471.039C650.492 476.014 653.927 483.826 654.725 489C655.89 496.544 654.824 504.635 656.39 512C658.056 519.838 663.036 526.579 661.674 535C661.083 538.651 658.942 542.223 659.487 546C660.238 551.21 664.789 555.5 667.204 560C672.151 569.217 676.241 579.614 677.714 590C679.643 603.592 678.364 615.58 676.081 629C669.274 669.021 651.982 718.564 611 734.796C566.842 752.287 518.023 717.99 505.025 676C491.853 633.446 511.965 585.4 542.004 555C550.833 546.064 560.658 534.933 573 531z"/>
<path style="fill:none; stroke:none;" d="M366 464L379 460C376.552 447.914 367.552 455.98 366 464z"/>
<path style="fill:#000000; stroke:none;" d="M489 454C474.283 474.835 458.366 462.053 439 462C439.297 468.804 441.483 475.419 443.127 482C446.871 496.997 448.155 521.679 464 529.431C479.958 537.239 496.219 525.737 500.699 510C505.745 492.275 497.675 470.274 491 454L489 454z"/>
<path style="fill:none; stroke:none;" d="M534 468C536.048 476.542 548.75 481.197 553.678 471.892C556.439 466.679 552.552 462.045 546.999 463.514C542.422 464.724 538.84 467.334 534 468M465.043 484.89C460.888 485.06 460.89 489.988 461.171 493C461.688 498.539 464.147 518.329 471.985 517.534C482.442 516.473 473.301 484.552 465.043 484.89z"/>
<path style="fill:#000000; stroke:none;" d="M335.015 496.927C326.505 499.218 329.126 508.737 335.04 512.015C357.876 524.67 386.492 530.065 412 533.424C418.768 534.316 435.831 536.903 441.681 532.972C446.286 529.878 442.221 521.521 437.895 520.318C430.93 518.381 422.233 519.569 415 518.714C398.623 516.78 382.535 513.643 367 507.947C359.04 505.028 343.497 494.644 335.015 496.927M613 504.465C575.346 511.239 585.835 569.482 623 562.532C662.481 555.15 651.492 497.539 613 504.465M213.109 520.028C202.734 525.848 214.685 541.318 223.772 535.82C232.914 530.289 222.552 514.73 213.109 520.028z"/>
<path style="fill:none; stroke:none;" d="M616 519.623C597.731 522.718 602.801 550.685 621 547.645C639.235 544.599 633.759 516.615 616 519.623z"/>
<path style="fill:#000000; stroke:none;" d="M577 541C562.457 546.514 550.442 559.989 541.235 572C512.332 609.707 500.782 666.67 535.174 704.999C565.954 739.305 623.182 731.847 643.752 691C652.427 673.774 658.594 655.7 663.13 637C668.651 614.236 670.102 588.507 659.191 567.001C650.465 549.803 637.474 572.106 624 574.536C602.21 578.464 582.738 560.919 577 541M405.044 560.743C398.181 563.504 399.567 571.605 405.019 574.914C414.423 580.623 442.465 589.806 452.867 583.821C457.775 580.997 457.838 574.046 452.941 571.303C443.604 566.072 430.151 566.957 420 563.189C415.489 561.515 409.897 558.791 405.044 560.743z"/>
<path style="fill:none; stroke:none;" d="M573.96 562.047C566.615 564.898 559.546 573.918 554.884 580.001C539.975 599.456 530.892 625.415 531.001 650C531.047 660.522 533.532 670.616 538.248 680C539.804 683.094 542.313 688.929 546.84 687.338C550.941 685.897 548.246 680.707 547.355 678C544.207 668.44 542.885 658.031 543.004 648C543.24 628.116 552.315 605.51 564.518 590C568.955 584.36 577.454 579.999 580.643 573.711C582.712 569.63 579.827 559.769 573.96 562.047z"/>
<path style="fill:#000000; stroke:none;" d="M384.996 732.862C381.444 734.053 374.092 737.303 372.032 740.532C366.097 749.834 381.156 749.998 385.995 748.235C393.568 745.478 394.32 729.736 384.996 732.862M546 767C542.368 766.612 536.528 765.938 533.303 768.028C529.205 770.684 528.235 783.68 531.179 787.397C537.894 795.875 545.997 785.697 546 779L546 767M556 788C573.549 791.258 573.355 781.023 574 766C569.893 766 561.08 764.327 557.742 767.028C553.226 770.682 555.609 783.043 556 788M582 767C582.957 772.155 581.166 781.391 584.028 785.682C586.731 789.736 606.844 791.347 609.972 787.397C613.249 783.259 611 771.132 611 766L582 767M498 789C502.504 789 516.928 791.345 519.782 787.397C522.332 783.867 520 772.473 520 768C514.793 768.27 504.028 764.56 499.742 768.028C495.739 771.267 498 784.277 498 789M418.044 771.032C408.07 776.205 416.172 797.337 425.867 791.968C434.487 787.194 428.726 765.491 418.044 771.032M398.09 782.89C394.011 783.953 393.002 789.507 392.44 793C390.895 802.589 390.43 816.424 392.228 825.985C393.02 830.192 396.714 832.649 400.956 831.551C411.589 828.799 406.976 800.773 405.536 793C404.885 789.486 403.267 781.542 398.09 782.89M511 855C517.028 823.916 550.776 802.97 579 824.681C584.625 829.007 590.081 834.422 592.956 841C594.462 844.446 594.529 851.489 597.589 853.821C603.028 857.968 619.314 855.014 626 855C628.659 854.995 632.326 855.467 634.397 853.397C637.131 850.663 636 844.503 636 841C636 831.034 636.118 820.897 637.286 811C637.669 807.748 639.681 800.587 635.682 798.782C632.949 797.548 628.899 798.914 626 798.985C617.677 799.189 609.326 799 601 799C571.251 799 541.727 799.725 512 798.985C503.119 798.764 493.878 798.533 485 797.911C481.604 797.672 476.58 795.393 473.318 796.693C469.654 798.153 471.037 805.049 471.424 808C472.707 817.768 473.768 828.146 472.83 838C472.462 841.869 470.332 848.991 473.028 852.397C474.789 854.622 479.446 854.239 482 854.576C491.474 855.824 501.452 855 511 855z"/>
<path style="fill:none; stroke:none;" d="M494.317 807.743C491.176 809.327 492.001 814.112 492 817C491.997 822.954 488.221 849.498 500.682 843.397C503.623 841.957 502.994 837.699 503 835C503.011 829.497 504.984 802.365 494.317 807.743z"/>
<path style="fill:#000000; stroke:none;" d="M546 827.518C506.241 836 521.082 896.48 561 887.319C601.889 877.936 585.825 819.021 546 827.518z"/>
<path style="fill:none; stroke:none;" d="M551 844.544C532.655 848.306 540.159 875.448 558 870.566C573.842 866.232 566.456 841.374 551 844.544z"/>
<path style="fill:#000000; stroke:none;" d="M557 899C557 902.831 555.275 912.336 558.603 914.972C562 917.662 570.875 916 575 916L613 916C618.252 916 624.671 916.84 628.718 912.721C630.254 911.157 631.172 909.215 630.972 907C630.264 899.14 633.062 884.155 630.243 877.108C628.338 872.346 622.921 872.644 622 867L621 867L612.933 880.004L612 904C599.901 900.49 607.994 872.628 608 863C594.022 863.039 595.39 872.699 587.671 881.999C580.173 891.035 568.793 898.037 557 899z"/>
</svg>
